<?xml version="1.0" standalone="no"?>
<!DOCTYPE svg PUBLIC "-//W3C//DTD SVG 20010904//EN"
 "http://www.w3.org/TR/2001/REC-SVG-20010904/DTD/svg10.dtd">
<svg version="1.0" xmlns="http://www.w3.org/2000/svg"
 width="282.000000pt" height="120.000000pt" viewBox="0 0 282.000000 120.000000"
 preserveAspectRatio="xMidYMid meet">

<g transform="translate(0.000000,120.000000) scale(0.100000,-0.100000)"
fill="#000000" stroke="none">
<path d="M2360 1019 c-13 -5 -48 -24 -78 -41 -60 -34 -57 -41 16 -53 99 -16
247 -90 263 -131 5 -14 9 -60 9 -103 0 -43 5 -103 11 -135 12 -56 13 -57 43
-54 l31 3 -1 90 c0 95 -24 205 -66 311 -17 44 -33 65 -65 87 -46 33 -120 45
-163 26z"/>
<path d="M1940 540 c-24 -24 -26 -50 -5 -50 8 0 15 7 15 15 0 19 36 38 60 30
11 -4 25 -15 30 -26 14 -26 -6 -61 -69 -124 -28 -27 -51 -57 -51 -67 0 -16 10
-18 80 -18 64 0 80 3 80 15 0 12 -13 15 -55 15 -30 0 -55 4 -55 8 0 4 18 26
41 47 43 42 69 83 69 110 0 9 -11 27 -25 40 -31 32 -86 34 -115 5z"/>
<path d="M2273 536 c-26 -23 -28 -29 -28 -106 0 -77 2 -83 28 -106 51 -43 128
-22 142 39 25 109 -11 197 -80 197 -21 0 -44 -9 -62 -24z m107 -42 c14 -35 12
-104 -3 -134 -16 -32 -57 -38 -81 -11 -39 43 -27 164 18 181 27 10 54 -5 66
-36z"/>
<path d="M2542 430 c0 -19 2 -27 5 -17 2 9 2 25 0 35 -3 9 -5 1 -5 -18z"/>
<path d="M2150 335 c-10 -11 -10 -19 -2 -27 15 -15 44 -2 40 19 -4 23 -22 27
-38 8z"/>
<path d="M297 273 c-4 -3 -48 -9 -99 -12 l-92 -6 56 -43 c76 -58 148 -82 249
-82 l81 0 -16 25 c-20 30 -20 33 -1 37 11 2 6 13 -18 45 -33 43 -57 55 -57 28
0 -8 -9 -15 -20 -15 -11 0 -20 7 -20 15 0 15 -50 22 -63 8z m-47 -53 c0 -13
-7 -20 -20 -20 -13 0 -20 7 -20 20 0 13 7 20 20 20 13 0 20 -7 20 -20z m190
10 c0 -5 -4 -10 -10 -10 -5 0 -10 5 -10 10 0 6 5 10 10 10 6 0 10 -4 10 -10z
m-23 -40 c12 0 13 -3 4 -13 -6 -8 -8 -16 -5 -19 2 -3 -7 -8 -21 -10 -18 -4
-25 -2 -21 7 2 7 -1 18 -7 24 -8 8 -7 11 6 11 9 0 17 6 18 13 0 10 2 10 6 0 2
-7 12 -13 20 -13z m-97 -20 c0 -5 -2 -10 -4 -10 -3 0 -8 5 -11 10 -3 6 -1 10
4 10 6 0 11 -4 11 -10z"/>
<path d="M66 215 c-15 -23 -15 -25 -1 -25 12 0 8 -15 -20 -65 l-37 -65 115 0
116 0 3 -27 c2 -20 9 -29 25 -31 17 -3 22 2 25 25 l3 28 117 3 117 3 -11 24
c-10 22 -14 23 -77 18 -114 -10 -202 18 -302 94 l-57 43 -16 -25z m97 -81 c-3
-8 -11 -14 -18 -14 -17 0 -27 28 -12 33 20 7 36 -4 30 -19z m-78 7 c3 -5 1
-12 -5 -16 -5 -3 -10 1 -10 9 0 18 6 21 15 7z m165 -56 c0 -8 -4 -15 -9 -15
-13 0 -22 16 -14 24 11 11 23 6 23 -9z"/>
<path d="M680 80 c0 -81 18 -95 22 -17 l3 52 23 -42 c20 -38 42 -56 42 -35 0
4 10 23 23 42 l22 35 6 -55 6 -55 1 73 c1 43 -2 72 -8 72 -6 0 -20 -20 -32
-45 -12 -25 -24 -45 -28 -45 -3 0 -16 20 -29 45 -36 67 -51 60 -51 -25z"/>
<path d="M1050 80 l0 -70 45 0 c25 0 45 5 45 10 0 6 -16 10 -36 10 -31 0 -35
3 -32 22 2 14 13 25 28 29 25 7 25 7 -3 8 -23 1 -28 5 -25 24 2 16 12 24 38
28 33 6 32 6 -12 8 l-48 1 0 -70z"/>
<path d="M1359 117 l20 -33 -25 -37 c-19 -29 -21 -37 -9 -37 8 0 15 3 15 8 0
4 9 18 19 31 l19 24 16 -31 c9 -18 23 -32 32 -32 11 0 9 8 -10 37 l-25 37 20
33 c24 39 9 45 -16 6 l-18 -26 -19 26 c-28 39 -44 33 -19 -6z"/>
<path d="M1660 80 c0 -81 18 -95 22 -17 l3 52 23 -42 c12 -24 26 -43 30 -43 5
0 18 19 29 43 l22 42 0 -52 c1 -29 6 -53 11 -53 6 0 10 30 10 70 0 39 -4 70
-10 70 -5 0 -21 -21 -36 -46 l-27 -46 -24 38 c-12 22 -23 42 -23 47 0 4 -7 7
-15 7 -12 0 -15 -14 -15 -70z"/>
<path d="M2054 115 c-7 -19 -21 -51 -28 -70 -12 -29 -13 -35 -2 -35 8 0 16 9
19 20 7 28 67 28 74 0 3 -11 11 -20 19 -20 11 0 9 11 -7 51 -40 102 -51 110
-75 54z m45 -42 c1 -7 -8 -13 -19 -13 -23 0 -24 8 -9 47 l12 28 7 -25 c5 -14
8 -31 9 -37z"/>
<path d="M2330 141 c8 -6 18 -7 22 -5 4 3 8 -24 8 -60 0 -52 3 -66 15 -66 12
0 15 13 15 60 0 53 2 60 20 60 11 0 20 5 20 10 0 6 -26 10 -57 10 -39 0 -53
-3 -43 -9z"/>
</g>
</svg>
