<svg width="34" height="34" viewBox="0 0 34 34" fill="none" xmlns="http://www.w3.org/2000/svg">
<g clip-path="url(#clip0_6003_938)">
<path d="M29.0915 0H9.3172C8.88053 0 8.52625 0.354343 8.52625 0.79095V12.6163H9.61417C9.28708 12.1986 9.10941 11.6868 9.10941 11.1482C9.10902 10.5103 9.35771 9.91049 9.80908 9.45951C9.90193 9.36666 10.0033 9.28394 10.1085 9.20828V1.58197H28.3005V2.15023L19.9954 8.18021V33.9999L28.3457 27.9372C28.452 28.2488 28.744 28.4748 29.0915 28.4748C29.5283 28.4748 29.8825 28.1202 29.8825 27.6838V0.79095C29.8825 0.353951 29.5283 0 29.0915 0ZM23.133 21.6914C22.7599 21.6914 22.449 21.231 22.3691 20.6142H21.4785V19.9221H22.3814C22.476 19.3432 22.7746 18.9172 23.1322 18.9172C23.5659 18.9172 23.917 19.5378 23.917 20.3044C23.9178 21.0703 23.5663 21.6914 23.133 21.6914ZM9.80941 20.5478C9.90246 20.64 10.0033 20.7228 10.1081 20.7976V27.6838C10.1081 28.1203 9.75361 28.4748 9.3172 28.4748C8.88053 28.4748 8.52625 28.1202 8.52625 27.6838V17.3897H9.61417C8.88327 18.3259 8.94776 19.6853 9.80941 20.5478ZM15.4669 14.2694C15.7816 14.5842 15.7816 15.0933 15.4669 15.408L11.6121 19.2632C11.4551 19.4196 11.2491 19.4987 11.043 19.4991C10.837 19.4987 10.6309 19.4203 10.4739 19.2632C10.1596 18.9484 10.16 18.439 10.4739 18.125L12.9552 15.6436H4.92284C4.47832 15.6436 4.11816 15.2834 4.11816 14.8389C4.11816 14.3944 4.47793 14.034 4.92323 14.034H12.9547L10.4739 11.5528C10.1599 11.2388 10.1595 10.729 10.4739 10.415C10.7883 10.1006 11.2981 10.1006 11.6124 10.415L15.4669 14.2694Z" fill="white"/>
</g>
<defs>
<clipPath id="clip0_6003_938">
<rect width="34" height="34" fill="white"/>
</clipPath>
</defs>
</svg>
