<svg width="26" height="34" viewBox="0 0 26 34" fill="none" xmlns="http://www.w3.org/2000/svg">
<path d="M25.0915 0H5.3172C4.88053 0 4.52625 0.354343 4.52625 0.79095V12.6163H5.61417C5.28708 12.1986 5.10941 11.6868 5.10941 11.1482C5.10902 10.5103 5.35771 9.91049 5.80908 9.45951C5.90193 9.36666 6.00334 9.28394 6.10854 9.20828V1.58197H24.3005V2.15023L15.9954 8.18021V33.9999L24.3457 27.9372C24.452 28.2488 24.744 28.4748 25.0915 28.4748C25.5283 28.4748 25.8825 28.1202 25.8825 27.6838V0.79095C25.8825 0.353951 25.5283 0 25.0915 0ZM19.133 21.6914C18.7599 21.6914 18.449 21.231 18.3691 20.6142H17.4785V19.9221H18.3814C18.476 19.3432 18.7746 18.9172 19.1322 18.9172C19.5659 18.9172 19.917 19.5378 19.917 20.3044C19.9178 21.0703 19.5663 21.6914 19.133 21.6914ZM5.80941 20.5478C5.90246 20.64 6.00328 20.7228 6.10815 20.7976V27.6838C6.10815 28.1203 5.75361 28.4748 5.3172 28.4748C4.88053 28.4748 4.52625 28.1202 4.52625 27.6838V17.3897H5.61417C4.88327 18.3259 4.94776 19.6853 5.80941 20.5478ZM11.4669 14.2694C11.7816 14.5842 11.7816 15.0933 11.4669 15.408L7.6121 19.2632C7.45508 19.4196 7.24906 19.4987 7.04304 19.4991C6.83702 19.4987 6.63094 19.4203 6.47393 19.2632C6.15957 18.9484 6.15996 18.439 6.47393 18.125L8.95518 15.6436H0.922835C0.478322 15.6436 0.118164 15.2834 0.118164 14.8389C0.118164 14.3944 0.477931 14.034 0.923228 14.034H8.95472L6.47386 11.5528C6.1599 11.2388 6.15951 10.729 6.47386 10.415C6.78828 10.1006 7.29807 10.1006 7.61242 10.415L11.4669 14.2694Z" fill="white"/>
</svg>
