<svg width="178" height="84" viewBox="0 0 178 84" fill="none" xmlns="http://www.w3.org/2000/svg">
<path d="M11.3511 40H3.27155V13.8182H11.7091C14.2488 13.8182 16.4221 14.3423 18.2289 15.3906C20.0358 16.4304 21.4207 17.9261 22.3838 19.8778C23.3468 21.821 23.8284 24.1477 23.8284 26.858C23.8284 29.5852 23.3426 31.9332 22.371 33.902C21.3994 35.8622 19.9846 37.3707 18.1267 38.4276C16.2687 39.4759 14.0102 40 11.3511 40ZM6.44201 37.1875H11.1466C13.3113 37.1875 15.1054 36.7699 16.5287 35.9347C17.9519 35.0994 19.013 33.9105 19.7119 32.3679C20.4108 30.8253 20.7602 28.9886 20.7602 26.858C20.7602 24.7443 20.415 22.9247 19.7247 21.3991C19.0343 19.8651 18.0031 18.6889 16.6309 17.8707C15.2588 17.044 13.55 16.6307 11.5045 16.6307H6.44201V37.1875ZM29.8666 13.8182H33.6506L42.5484 35.5511H42.8552L51.7529 13.8182H55.537V40H52.5711V20.108H52.3154L44.1336 40H41.27L33.0881 20.108H32.8325V40H29.8666V13.8182ZM63.6878 13.8182L71.4605 35.858H71.7673L79.54 13.8182H82.8639L73.2503 40H69.9775L60.3639 13.8182H63.6878ZM108.423 13.8182V40H105.355L91.0882 19.4432H90.8325V40H87.662V13.8182H90.7302L105.048 34.4261H105.304V13.8182H108.423Z" fill="white"/>
<path d="M125.872 40V37.6989L134.514 28.2386C135.529 27.1307 136.364 26.1676 137.02 25.3494C137.676 24.5227 138.162 23.7472 138.477 23.0227C138.801 22.2898 138.963 21.5227 138.963 20.7216C138.963 19.8011 138.742 19.0043 138.298 18.331C137.864 17.6577 137.267 17.1378 136.509 16.7713C135.75 16.4048 134.898 16.2216 133.952 16.2216C132.946 16.2216 132.068 16.4304 131.318 16.848C130.577 17.2571 130.002 17.8324 129.592 18.5739C129.192 19.3153 128.992 20.1847 128.992 21.1818H125.975C125.975 19.6477 126.328 18.3011 127.036 17.142C127.743 15.983 128.706 15.0795 129.925 14.4318C131.152 13.7841 132.529 13.4602 134.054 13.4602C135.588 13.4602 136.948 13.7841 138.132 14.4318C139.317 15.0795 140.246 15.9531 140.919 17.0526C141.592 18.152 141.929 19.375 141.929 20.7216C141.929 21.6847 141.754 22.6264 141.405 23.5469C141.064 24.4588 140.467 25.4773 139.615 26.6023C138.771 27.7187 137.6 29.0824 136.1 30.6932L130.219 36.983V37.1875H142.389V40H125.872ZM150.639 40.2045C150.008 40.2045 149.467 39.9787 149.016 39.527C148.564 39.0753 148.338 38.5341 148.338 37.9034C148.338 37.2727 148.564 36.7315 149.016 36.2798C149.467 35.8281 150.008 35.6023 150.639 35.6023C151.27 35.6023 151.811 35.8281 152.263 36.2798C152.714 36.7315 152.94 37.2727 152.94 37.9034C152.94 38.321 152.834 38.7045 152.621 39.054C152.416 39.4034 152.139 39.6847 151.79 39.8977C151.449 40.1023 151.065 40.2045 150.639 40.2045ZM166.649 40.358C164.723 40.358 163.082 39.8338 161.727 38.7855C160.372 37.7287 159.336 36.1989 158.62 34.196C157.905 32.1847 157.547 29.7557 157.547 26.9091C157.547 24.0795 157.905 21.6634 158.62 19.6605C159.345 17.6491 160.385 16.1151 161.74 15.0582C163.103 13.9929 164.74 13.4602 166.649 13.4602C168.558 13.4602 170.19 13.9929 171.545 15.0582C172.909 16.1151 173.949 17.6491 174.665 19.6605C175.389 21.6634 175.751 24.0795 175.751 26.9091C175.751 29.7557 175.393 32.1847 174.677 34.196C173.961 36.1989 172.926 37.7287 171.571 38.7855C170.216 39.8338 168.575 40.358 166.649 40.358ZM166.649 37.5455C168.558 37.5455 170.041 36.625 171.098 34.7841C172.155 32.9432 172.683 30.3182 172.683 26.9091C172.683 24.642 172.44 22.7116 171.954 21.1179C171.477 19.5241 170.787 18.3097 169.883 17.4744C168.988 16.6392 167.91 16.2216 166.649 16.2216C164.757 16.2216 163.278 17.1548 162.213 19.0213C161.147 20.8793 160.615 23.5085 160.615 26.9091C160.615 29.1761 160.853 31.1023 161.331 32.6875C161.808 34.2727 162.494 35.4787 163.389 36.3054C164.292 37.1321 165.379 37.5455 166.649 37.5455Z" fill="url(#paint0_linear_4021_922)"/>
<path d="M16.9373 62.67V77H15.2373V66.47C15.2373 66.33 15.2406 66.18 15.2473 66.02C15.2606 65.86 15.2739 65.6967 15.2873 65.53L10.3673 74.49C10.2139 74.79 9.9806 74.94 9.66727 74.94H9.38727C9.07393 74.94 8.8406 74.79 8.68727 74.49L3.66727 65.49C3.70727 65.8433 3.72727 66.17 3.72727 66.47V77H2.02727V62.67H3.45727C3.6306 62.67 3.76393 62.6867 3.85727 62.72C3.9506 62.7533 4.0406 62.8467 4.12727 63L9.07727 71.82C9.15727 71.98 9.23393 72.1467 9.30727 72.32C9.38727 72.4933 9.4606 72.67 9.52727 72.85C9.59393 72.67 9.66393 72.4933 9.73727 72.32C9.8106 72.14 9.8906 71.97 9.97727 71.81L14.8373 63C14.9173 62.8467 15.0039 62.7533 15.0973 62.72C15.1973 62.6867 15.3339 62.67 15.5073 62.67H16.9373ZM31.4415 75.42L31.4315 77H22.6015V62.67H31.4315V64.25H24.5415V69.01H30.1215V70.53H24.5415V75.42H31.4415ZM47.0745 77H45.1545C45.0078 77 44.8911 76.9633 44.8045 76.89C44.7245 76.81 44.6578 76.7233 44.6045 76.63L40.7645 70.61C40.7111 70.77 40.6511 70.9067 40.5845 71.02L36.8445 76.63C36.7778 76.7233 36.7045 76.81 36.6245 76.89C36.5511 76.9633 36.4478 77 36.3145 77H34.5145L39.4445 69.64L34.7145 62.67H36.6445C36.7845 62.67 36.8878 62.6933 36.9545 62.74C37.0211 62.7867 37.0811 62.8533 37.1345 62.94L40.8745 68.68C40.9211 68.54 40.9911 68.3867 41.0845 68.22L44.6145 62.98C44.6678 62.8867 44.7311 62.8133 44.8045 62.76C44.8778 62.7 44.9645 62.67 45.0645 62.67H46.9145L42.1645 69.55L47.0745 77ZM66.0427 62.67V77H64.3427V66.47C64.3427 66.33 64.3461 66.18 64.3527 66.02C64.3661 65.86 64.3794 65.6967 64.3927 65.53L59.4727 74.49C59.3194 74.79 59.0861 74.94 58.7727 74.94H58.4927C58.1794 74.94 57.9461 74.79 57.7927 74.49L52.7727 65.49C52.8127 65.8433 52.8327 66.17 52.8327 66.47V77H51.1327V62.67H52.5627C52.7361 62.67 52.8694 62.6867 52.9627 62.72C53.0561 62.7533 53.1461 62.8467 53.2327 63L58.1827 71.82C58.2627 71.98 58.3394 72.1467 58.4127 72.32C58.4927 72.4933 58.5661 72.67 58.6327 72.85C58.6994 72.67 58.7694 72.4933 58.8427 72.32C58.9161 72.14 58.9961 71.97 59.0827 71.81L63.9427 63C64.0227 62.8467 64.1094 62.7533 64.2027 62.72C64.3027 62.6867 64.4394 62.67 64.6127 62.67H66.0427ZM79.297 71.68L77.047 65.85C76.9803 65.6767 76.9103 65.4767 76.837 65.25C76.7636 65.0167 76.6936 64.77 76.627 64.51C76.487 65.05 76.3436 65.5 76.197 65.86L73.947 71.68H79.297ZM83.337 77H81.837C81.6636 77 81.5236 76.9567 81.417 76.87C81.3103 76.7833 81.2303 76.6733 81.177 76.54L79.837 73.08H73.407L72.067 76.54C72.027 76.66 71.9503 76.7667 71.837 76.86C71.7236 76.9533 71.5803 77 71.407 77H69.917L75.647 62.67H77.607L83.337 77ZM95.5063 64.3H90.8663V77H88.9363V64.3H84.2863V62.67H95.5063V64.3Z" fill="url(#paint1_linear_4021_922)"/>
<defs>
<linearGradient id="paint0_linear_4021_922" x1="0" y1="0" x2="30.0028" y2="98.898" gradientUnits="userSpaceOnUse">
<stop stop-color="#43CBFF"/>
<stop offset="1" stop-color="#9708CC"/>
</linearGradient>
<linearGradient id="paint1_linear_4021_922" x1="-26.8382" y1="25.5517" x2="-15.2507" y2="101.32" gradientUnits="userSpaceOnUse">
<stop stop-color="#43CBFF"/>
<stop offset="1" stop-color="#9708CC"/>
</linearGradient>
</defs>
</svg>
