<svg width="34" height="34" viewBox="0 0 34 34" fill="none" xmlns="http://www.w3.org/2000/svg">
<path d="M21.2497 4.25H12.7497C9.62006 4.25 7.08301 6.78705 7.08301 9.91667V21.25" stroke="#ACACAC" stroke-width="2"/>
<path d="M12.333 16.2917C12.333 14.607 12.3345 13.4271 12.4365 12.5224C12.5362 11.6377 12.7213 11.1407 13.0046 10.7715C13.1775 10.5462 13.3792 10.3445 13.6045 10.1716C13.9737 9.88832 14.4708 9.70321 15.3554 9.60349C16.2601 9.50149 17.44 9.5 19.1247 9.5C20.8094 9.5 21.9892 9.50149 22.894 9.60349C23.7786 9.70321 24.2756 9.88832 24.6448 10.1716C24.8701 10.3445 25.0718 10.5462 25.2447 10.7715C25.528 11.1407 25.7131 11.6377 25.8129 12.5224C25.9149 13.4271 25.9163 14.607 25.9163 16.2917V21.9583C25.9163 23.643 25.9149 24.8229 25.8129 25.7276C25.7131 26.6122 25.528 27.1093 25.2447 27.4785C25.0718 27.7038 24.8701 27.9055 24.6448 28.0784C24.2756 28.3617 23.7786 28.5468 22.894 28.6465C21.9892 28.7485 20.8094 28.75 19.1247 28.75C17.44 28.75 16.2601 28.7485 15.3554 28.6465C14.4708 28.5468 13.9737 28.3617 13.6045 28.0784C13.3792 27.9055 13.1775 27.7038 13.0046 27.4785C12.7213 27.1093 12.5362 26.6122 12.4365 25.7276C12.3345 24.8229 12.333 23.643 12.333 21.9583V16.2917Z" stroke="#ACACAC" stroke-width="2"/>
</svg>
